<svg width="40" height="40" viewBox="0 0 40 40" fill="none" xmlns="http://www.w3.org/2000/svg">
<g clip-path="url(#clip0_2261_38)">
<path d="M33.3334 19.9041C33.3334 12.6033 27.3739 6.66659 20 6.66659C12.6262 6.66659 6.66671 12.6033 6.66671 19.9041C6.66671 21.8873 6.91102 23.1639 7.21409 24.0974C7.41589 24.7188 7.90201 24.1071 8.14117 23.8828C9.77787 22.3471 12.3369 22.3836 13.929 23.9656C16.297 26.3183 18.481 29.5816 15.4635 32.5816C13.8435 34.1923 11.4038 34.8621 9.54727 33.1274C7.15064 30.8879 5.06814 28.2819 4.04369 25.1268C3.61504 23.8066 3.33337 22.1748 3.33337 19.9041C3.33337 10.7422 10.8054 3.33325 20 3.33325C29.1947 3.33325 36.6667 10.7422 36.6667 19.9041C36.6667 22.1748 36.385 23.8066 35.9564 25.1268C34.9319 28.2819 32.8494 30.8879 30.4529 33.1274C28.5962 34.8621 26.1565 34.1923 24.5365 32.5816C21.519 29.5816 23.703 26.3183 26.071 23.9656C27.6632 22.3836 30.2222 22.3471 31.8589 23.8828C32.3209 24.3163 32.5477 24.8314 32.786 24.0974C33.089 23.1639 33.3334 21.8873 33.3334 19.9041Z" fill="#2D3B36"/>
</g>
<defs>
<clipPath id="clip0_2261_38">
<rect width="40" height="40" fill="white"/>
</clipPath>
</defs>
</svg>
